<?xml version="1.0" encoding="utf-8"?>
<!-- Generator: Adobe Illustrator 21.1.0, SVG Export Plug-In . SVG Version: 6.00 Build 0)  -->
<!DOCTYPE svg PUBLIC "-//W3C//DTD SVG 1.1//EN" "http://www.w3.org/Graphics/SVG/1.1/DTD/svg11.dtd">
<svg version="1.1" xmlns="http://www.w3.org/2000/svg" xmlns:xlink="http://www.w3.org/1999/xlink" x="0px" y="0px"
	 viewBox="0 0 200 199.3" style="enable-background:new 0 0 200 199.3;" xml:space="preserve">
<style type="text/css">
	.st0{fill:#1A171B;}
</style>
<g id="Circle">
	<path class="st0" d="M91.7,0C40.3,4.2,0,47.2,0,99.6c0,52.5,40.4,95.5,91.9,99.6v-20.7c-6.8-0.1-10.8-0.1-12.2-0.2
		c-1.4-0.1-2.9-0.4-4.7-1.1c-5-1.7-9-4.5-12-8.6c-3-4.1-4.5-8.6-4.5-13.5c0-5.8,1.8-10.8,5.3-15.1c4.7-5.8,10.8-8.7,18.3-8.7h42
		c1.9,0,3.5-0.7,4.9-2.1c1.4-1.4,2.1-3.1,2.1-5c0-2.2-0.7-3.8-2.2-5.1c-1.5-1.2-3.5-1.8-6-1.8h-4.1l-8.5-0.1l0.1,11.1H91.9v-11.1
		c-10.8,0-17.3-0.1-19.4-0.2c-2.1-0.1-4.1-0.5-6-1.1c-4.8-1.5-8.6-4.4-11.6-8.5c-2.9-4.1-4.4-8.8-4.4-14c0-6.4,2.3-11.9,7-16.4
		c4.7-4.5,10.1-6.8,16.4-6.8H134c1.8,0,3.5-0.7,4.8-2.1c1.4-1.4,2.1-3.1,2.1-5.1c0-1.9-0.7-3.5-2.1-4.9c-1.4-1.4-3.1-2.1-5-2.1
		l-23.5-0.1l0.1,11.2H91.9V56.1h-9.1C80,58.7,76.9,60,73.4,60H55.9c-3.4,0-6.4-1.1-8.9-3.4l19.7-3.7c-1.2-0.2-4-0.8-8.2-1.6
		l-5.8-1.1L46.5,49l-3.9-0.7v-1.8c0-3.6,1.3-6.6,3.9-9.2c2.6-2.6,5.7-3.9,9.4-3.9h17.5c4.7,0,8.4,2.2,11.3,6.4l6.9,0.2V0z
		 M55.9,43.9c1.7,0,2.5-0.8,2.5-2.4c0-1.7-0.8-2.5-2.5-2.5c-1.7,0-2.5,0.8-2.5,2.5C53.4,43.1,54.3,43.9,55.9,43.9"/>
	<path class="st0" d="M200,99.6c0-51.8-39.4-94.4-89.9-99.5v39.5c5.2,0.1,9.5,0.2,12.9,0.2c2.6,0,5.8-0.1,9.6-0.2h1.1
		c6.4,0,11.8,2.1,16.2,6.3c5,4.7,7.5,10.5,7.5,17.2c0,5.6-1.6,10.5-4.9,14.7c-2,2.6-4.8,4.7-8.2,6.4c-3.5,1.7-6.9,2.5-10.3,2.5
		l-59.9-0.1c-2,0-3.7,0.7-5.1,2.1c-1.4,1.4-2,3.1-2,5c0,1.9,0.7,3.6,2,5c1.4,1.4,2.9,2.1,4.8,2h18.1V89.6h18.6v11.1l12.1,0.1h1.8
		c6.5,0,12,2.3,16.4,6.9c4.5,4.6,6.7,10.2,6.7,16.9c0,5.6-1.9,10.6-5.6,15.1c-4.7,5.5-10.6,8.3-17.7,8.2l-42-0.1
		c-2,0-3.7,0.7-5.1,2.1c-1.3,1.4-2,3.1-2,5.2c0,1.6,0.6,3,1.7,4.3c1,1.2,2,1.9,2.9,2.2c0.9,0.2,3,0.3,6.5,0.3h0.2H92l-0.2-11.1h18.6
		v11.1h16.8c-1.5,7-7.1,12.5-16.8,16.5v20.7C160.8,193.9,200,151.3,200,99.6"/>
</g>
<g id="Ebene_2">
</g>
</svg>
