<?xml version="1.0" encoding="utf-8"?>
<!-- Generator: Adobe Illustrator 14.0.0, SVG Export Plug-In . SVG Version: 6.00 Build 43363)  -->
<!DOCTYPE svg PUBLIC "-//W3C//DTD SVG 1.1//EN" "http://www.w3.org/Graphics/SVG/1.1/DTD/svg11.dtd">
<svg version="1.1" id="Ebene_1" xmlns="http://www.w3.org/2000/svg" xmlns:xlink="http://www.w3.org/1999/xlink" x="0px" y="0px"
	 width="50px" height="50px" viewBox="0 0 50 50" enable-background="new 0 0 50 50" xml:space="preserve">
<path d="M15.023,10.843c0,0.381-0.198,0.57-0.593,0.57c-0.396,0-0.594-0.189-0.594-0.57c0-0.396,0.198-0.595,0.594-0.595
	C14.825,10.248,15.023,10.446,15.023,10.843 M21.307,10.446c-0.689-1.024-1.59-1.538-2.703-1.538H14.43
	c-0.865,0-1.608,0.309-2.231,0.923c-0.622,0.615-0.934,1.349-0.934,2.197v0.418l0.923,0.175l1.473,0.286l1.384,0.265
	c1.011,0.189,1.662,0.314,1.955,0.373l-4.702,0.879c0.615,0.542,1.326,0.813,2.132,0.813h4.174c0.835,0,1.575-0.308,2.22-0.923
	h2.175v2.681h4.438l-0.022-2.681l5.603,0.022c0.47,0,0.869,0.165,1.199,0.494c0.329,0.329,0.493,0.722,0.493,1.176
	c0,0.469-0.164,0.872-0.493,1.209c-0.33,0.337-0.715,0.505-1.154,0.505H18.714c-1.494,0-2.798,0.542-3.911,1.626
	c-1.113,1.068-1.67,2.373-1.67,3.911c0,1.23,0.348,2.34,1.044,3.329c0.695,0.988,1.615,1.666,2.757,2.031
	c0.454,0.147,0.934,0.235,1.44,0.265c0.505,0.029,2.047,0.044,4.625,0.044v2.637h4.438l-0.022-2.659l2.022,0.022h0.988
	c0.6,0,1.076,0.146,1.428,0.438c0.352,0.294,0.527,0.696,0.527,1.209c0,0.454-0.164,0.851-0.494,1.187
	c-0.33,0.338-0.722,0.506-1.176,0.506H20.692c-1.788,0-3.245,0.696-4.373,2.087c-0.85,1.026-1.274,2.227-1.274,3.604
	c0,1.187,0.359,2.264,1.076,3.23c0.718,0.967,1.67,1.648,2.857,2.043c0.41,0.146,0.78,0.231,1.11,0.253
	c0.329,0.022,1.299,0.04,2.911,0.055v1.23c0,0.63,0.216,1.161,0.648,1.593c0.432,0.433,0.963,0.649,1.593,0.649
	c0.571,0,1.076-0.231,1.516-0.693c0.44-0.461,0.668-0.999,0.682-1.615v-1.208c2.314-0.953,3.647-2.263,3.998-3.933h-3.998v-2.637
	h-4.438l0.044,2.637h-1.34h-0.044c-0.835,0-1.356-0.026-1.56-0.077c-0.206-0.052-0.433-0.223-0.682-0.516
	C19.139,38.659,19,38.315,19,37.935c0-0.498,0.161-0.912,0.483-1.242c0.322-0.329,0.725-0.494,1.209-0.494l10.019,0.022
	c1.686,0.015,3.092-0.637,4.219-1.956c0.894-1.069,1.34-2.271,1.34-3.604c0-1.582-0.53-2.923-1.592-4.021
	c-1.063-1.1-2.369-1.648-3.923-1.648h-0.438l-2.879-0.021v-2.659h-4.438v2.659h-4.307c-0.439,0.015-0.82-0.146-1.142-0.483
	c-0.323-0.337-0.484-0.732-0.484-1.187c0-0.47,0.161-0.868,0.484-1.198c0.322-0.329,0.725-0.494,1.208-0.494l14.282,0.022
	c0.806,0,1.623-0.201,2.45-0.604c0.828-0.403,1.484-0.912,1.967-1.526c0.775-1.012,1.164-2.184,1.164-3.517
	c0-1.611-0.593-2.98-1.779-4.108c-1.055-0.996-2.344-1.494-3.867-1.494h-0.264c-0.908,0.029-1.67,0.044-2.285,0.044
	c-0.82,0-1.846-0.015-3.076-0.044V8.513c0-1.259-0.08-2.094-0.242-2.504c-0.088-0.265-0.329-0.514-0.725-0.748
	c-0.352-0.205-0.747-0.308-1.187-0.308c-0.586,0-1.091,0.19-1.516,0.571c-0.483,0.425-0.725,1.15-0.725,2.175v2.791L21.307,10.446z"
	/>
</svg>
