<?xml version="1.0" encoding="iso-8859-1"?>
<!-- Generator: Adobe Illustrator 19.0.0, SVG Export Plug-In . SVG Version: 6.00 Build 0)  -->
<svg version="1.1" id="Capa_1" xmlns="http://www.w3.org/2000/svg" xmlns:xlink="http://www.w3.org/1999/xlink" x="0px" y="0px"
	 viewBox="0 0 490 490" style="enable-background:new 0 0 490 490;" xml:space="preserve">
<g>
	<g>
		<path d="M355.65,0h-221.4c-10.9,0-19.8,8.9-19.8,19.8v450.4c0,10.9,8.9,19.8,19.8,19.8h221.5c10.9,0,19.8-8.9,19.8-19.8V19.8
			C375.55,8.9,366.55,0,355.65,0z M183.15,446.1c-17.9,0-32.6-14.8-32.6-32.6s14.8-32.6,32.6-32.6s32.6,14.8,32.6,32.6
			S201.05,446.1,183.15,446.1z M183.15,333.8c-17.9,0-32.6-14.8-32.6-32.6s14.8-32.6,32.6-32.6s32.6,14.8,32.6,32.6
			S201.05,333.8,183.15,333.8z M183.15,221.5c-17.9,0-32.6-14.8-32.6-32.6s14.8-32.6,32.6-32.6s32.6,14.8,32.6,32.6
			S201.05,221.5,183.15,221.5z M183.15,109.2c-17.9,0-32.6-14.8-32.6-32.6s14.8-32.6,32.6-32.6s32.6,14.8,32.6,32.6
			S201.05,109.2,183.15,109.2z M306.75,446.1c-17.9,0-32.6-14.8-32.6-32.6s14.8-32.6,32.6-32.6s32.6,14.8,32.6,32.6
			S324.65,446.1,306.75,446.1z M306.75,333.8c-17.9,0-32.6-14.8-32.6-32.6s14.8-32.6,32.6-32.6s32.6,14.8,32.6,32.6
			S324.65,333.8,306.75,333.8z M306.75,221.5c-17.9,0-32.6-14.8-32.6-32.6s14.8-32.6,32.6-32.6s32.6,14.8,32.6,32.6
			S324.65,221.5,306.75,221.5z M306.75,109.2c-17.9,0-32.6-14.8-32.6-32.6s14.8-32.6,32.6-32.6s32.6,14.8,32.6,32.6
			S324.65,109.2,306.75,109.2z"/>
	</g>
</g>
<g>
</g>
<g>
</g>
<g>
</g>
<g>
</g>
<g>
</g>
<g>
</g>
<g>
</g>
<g>
</g>
<g>
</g>
<g>
</g>
<g>
</g>
<g>
</g>
<g>
</g>
<g>
</g>
<g>
</g>
</svg>
