<?xml version="1.0" encoding="iso-8859-1"?>
<!-- Generator: Adobe Illustrator 19.0.0, SVG Export Plug-In . SVG Version: 6.00 Build 0)  -->
<svg version="1.1" id="Capa_1" xmlns="http://www.w3.org/2000/svg" xmlns:xlink="http://www.w3.org/1999/xlink" x="0px" y="0px"
	 viewBox="0 0 490.05 490.05" style="enable-background:new 0 0 490.05 490.05;" xml:space="preserve">
<g>
	<g>
		<g>
			
				<rect x="163.335" y="227.794" transform="matrix(-0.7071 -0.7071 0.7071 -0.7071 246.4107 590.6539)" width="164.398" height="33"/>
			<path d="M470.3,19.5c-26-26-68.4-26-94.4,0l-152,152l94.4,94.4l152-152C496.3,87.9,496.3,45.6,470.3,19.5z"/>
			<path d="M64.5,360.8C54,371.3,47,385.3,45.1,400c-1.9,14.8-8.9,28.8-19.4,39.3L5.5,459.5c-7,7-7,18.3,0,25.3s18.3,7,25.3,0
				L51,464.6c10.5-10.5,24.5-17.5,39.3-19.4s28.8-8.9,39.3-19.4L252.4,303l-64.5-65.3L64.5,360.8z"/>
		</g>
	</g>
</g>
<g>
</g>
<g>
</g>
<g>
</g>
<g>
</g>
<g>
</g>
<g>
</g>
<g>
</g>
<g>
</g>
<g>
</g>
<g>
</g>
<g>
</g>
<g>
</g>
<g>
</g>
<g>
</g>
<g>
</g>
</svg>
