<?xml version="1.0" encoding="utf-8"?>
<!-- Generator: Adobe Illustrator 14.0.0, SVG Export Plug-In . SVG Version: 6.00 Build 43363)  -->
<!DOCTYPE svg PUBLIC "-//W3C//DTD SVG 1.1//EN" "http://www.w3.org/Graphics/SVG/1.1/DTD/svg11.dtd">
<svg version="1.1" id="Capa_1" xmlns="http://www.w3.org/2000/svg" xmlns:xlink="http://www.w3.org/1999/xlink" x="0px" y="0px"
	 width="800px" height="800px" viewBox="0 0 800 800" enable-background="new 0 0 800 800" xml:space="preserve">
<path fill="#030104" d="M668.677,123.077c-25.49,0-46.153,20.664-46.153,46.154v200c0,8.492-6.893,15.384-15.385,15.384
	s-15.385-6.892-15.385-15.384V76.923c0-25.49-20.664-46.154-46.154-46.154c-25.489,0-46.153,20.664-46.153,46.154v261.539
	c0,8.492-6.893,15.385-15.385,15.385s-15.385-6.893-15.385-15.385V46.154C468.677,20.664,448.013,0,422.523,0
	c-25.49,0-46.154,20.664-46.154,46.154v292.308c0,8.492-6.893,15.385-15.385,15.385s-15.385-6.893-15.385-15.385V107.692
	c0-25.49-20.663-46.154-46.153-46.154s-46.154,20.664-46.154,46.154v384.615l-62.308-85.262c-18.461-28.461-54.492-38-80.892-21.692
	C83.785,402.031,77.262,438.4,95.477,466.77c0,0,100.492,152.092,143.323,217.199C281.631,749.077,351.016,800,480.77,800
	c214.83,0,234.062-165.907,234.062-215.385c0-49.477,0-415.384,0-415.384C714.831,143.741,694.167,123.077,668.677,123.077z"/>
</svg>
