<?xml version="1.0" encoding="iso-8859-1"?>
<!-- Generator: Adobe Illustrator 19.0.0, SVG Export Plug-In . SVG Version: 6.00 Build 0)  -->
<svg version="1.1" id="Capa_1" xmlns="http://www.w3.org/2000/svg" xmlns:xlink="http://www.w3.org/1999/xlink" x="0px" y="0px"
	 viewBox="0 0 489.9 489.9" style="enable-background:new 0 0 489.9 489.9;" xml:space="preserve">
<g>
	<g>
		<path d="M328.2,0H49.4v489.9h391.1V112.3L328.2,0z M122.7,120.5H154V89.6c0-13.9,11.2-25.1,25.1-25.1l0,0
			c13.9,0,25.1,11.2,25.1,25.1v30.9h31.3c13.9,0,25.1,11.2,25.1,25.1l0,0c0,13.9-11.2,25.1-25.1,25.1h-31.3v31.2
			c0,13.9-11.2,25.1-25.1,25.1l0,0c-13.9,0-25.1-11.2-25.1-25.1v-31.3h-31.3c-13.9,0-25.1-11.2-25.1-25.1l0,0
			C97.6,131.7,108.9,120.5,122.7,120.5z M381.9,418.3H108.1c-5.4,0-10.1-4.3-10.1-10.1c0-5.4,4.3-10.1,10.1-10.1h273.3
			c5.4,0,10.1,4.3,10.1,10.1C391.6,414,387.3,418.3,381.9,418.3z M381.9,332.8H108.1c-5.4,0-10.1-4.3-10.1-10.1
			c0-5.4,4.3-10.1,10.1-10.1h273.3c5.4,0,10.1,4.3,10.1,10.1C391.6,328.1,387.3,332.8,381.9,332.8z M308,132.1V19.8l112.8,112.4H308
			V132.1z"/>
	</g>
</g>
<g>
</g>
<g>
</g>
<g>
</g>
<g>
</g>
<g>
</g>
<g>
</g>
<g>
</g>
<g>
</g>
<g>
</g>
<g>
</g>
<g>
</g>
<g>
</g>
<g>
</g>
<g>
</g>
<g>
</g>
</svg>
