<?xml version="1.0" encoding="iso-8859-1"?>
<!-- Generator: Adobe Illustrator 17.1.0, SVG Export Plug-In . SVG Version: 6.00 Build 0)  -->
<!DOCTYPE svg PUBLIC "-//W3C//DTD SVG 1.1//EN" "http://www.w3.org/Graphics/SVG/1.1/DTD/svg11.dtd">
<svg version="1.1" id="Capa_1" xmlns="http://www.w3.org/2000/svg" xmlns:xlink="http://www.w3.org/1999/xlink" x="0px" y="0px"
	 viewBox="0 0 188.113 188.113" style="enable-background:new 0 0 188.113 188.113;" xml:space="preserve">
<path d="M16.452,25.879C27.851,12.779,45.125,6.136,67.795,6.136c1.025,0,2.07,0.014,3.124,0.041
	c14.388,0.372,25.416,5.153,33.714,14.616c19.312,22.024,18.149,63.637,15.738,86.481c-1.013,9.588-6.219,18.084-14.285,23.31
	c-24.943,16.164-67.938,44.072-75.642,49.368c-1.927,1.324-3.993,2.024-5.975,2.024c-6.964,0-11.689-8.334-12.038-21.232
	C12.036,146.1,9.638,136,6.861,124.305c-2.01-8.464-4.088-17.215-5.74-29.058C-0.339,84.785-3.548,48.864,16.452,25.879z
	 M124.854,33.12c-0.317,0.214-0.622,0.634-0.914,1.229c9.438,24.518,8.356,55.211,6.375,73.976
	c-0.227,2.146-0.625,4.246-1.163,6.295c12.271,1.936,54.11-40.4,58.721-59.323C192.585,35.963,126.302,32.142,124.854,33.12z"/>
<g>
</g>
<g>
</g>
<g>
</g>
<g>
</g>
<g>
</g>
<g>
</g>
<g>
</g>
<g>
</g>
<g>
</g>
<g>
</g>
<g>
</g>
<g>
</g>
<g>
</g>
<g>
</g>
<g>
</g>
</svg>
