<?xml version="1.0" encoding="iso-8859-1"?>
<!-- Generator: Adobe Illustrator 19.0.0, SVG Export Plug-In . SVG Version: 6.00 Build 0)  -->
<svg version="1.1" id="Layer_1" xmlns="http://www.w3.org/2000/svg" xmlns:xlink="http://www.w3.org/1999/xlink" x="0px" y="0px"
	 viewBox="0 0 512 512" style="enable-background:new 0 0 512 512;" xml:space="preserve">
<g>
	<g>
		<path d="M387.255,407.777h-5.795c20.842-11.38,40.182-25.802,57.442-43.063c44.036-44.035,69.678-101.555,73.099-163.246H10.895
			c3.421,61.691,29.061,119.211,73.098,163.246c17.261,17.261,36.6,31.683,57.442,43.063h-5.794
			c-43.327,0-78.575,35.239-78.575,78.56v15.221l393.543,0.004l15.221-0.011V486.33C465.83,443.016,430.581,407.777,387.255,407.777
			z"/>
	</g>
</g>
<g>
	<g>
		<path d="M124.937,76.066c4.92-11.275,5.45-24.45,0.383-36.686c-7.283-17.582-24.286-28.943-43.318-28.943
			c-6.167,0-12.198,1.205-17.928,3.577L28.937,28.567C5.058,38.459-6.323,65.933,3.569,89.814
			c4.998,12.064,14.571,21.198,26.235,25.744l16.836,55.467h129.034L124.937,76.066z"/>
	</g>
</g>
<g>
</g>
<g>
</g>
<g>
</g>
<g>
</g>
<g>
</g>
<g>
</g>
<g>
</g>
<g>
</g>
<g>
</g>
<g>
</g>
<g>
</g>
<g>
</g>
<g>
</g>
<g>
</g>
<g>
</g>
</svg>
