<?xml version="1.0" encoding="utf-8"?>
<!-- Generator: Adobe Illustrator 14.0.0, SVG Export Plug-In . SVG Version: 6.00 Build 43363)  -->
<!DOCTYPE svg PUBLIC "-//W3C//DTD SVG 1.1//EN" "http://www.w3.org/Graphics/SVG/1.1/DTD/svg11.dtd">
<svg version="1.1" id="Ebene_1" xmlns="http://www.w3.org/2000/svg" xmlns:xlink="http://www.w3.org/1999/xlink" x="0px" y="0px"
	 width="50px" height="50px" viewBox="0 0 50 50" enable-background="new 0 0 50 50" xml:space="preserve">
<path fill="#1A171B" d="M28.17,26.188c0.178-0.351,0.439-0.527,0.791-0.527c0.631,0,1.107,0.33,1.43,0.99
	c0.248,0.512,0.373,1.442,0.373,2.789C30.045,27.668,29.182,26.584,28.17,26.188 M33.707,13.664c0-2.212-0.658-4.05-1.977-5.515
	c-1.393-1.567-3.113-2.351-5.164-2.351c-2.271,0-4.335,0.681-6.196,2.043c-1.465,1.07-2.688,2.535-3.67,4.395
	c-0.879,1.626-1.578,3.387-2.098,5.284c-0.521,1.897-0.78,3.615-0.78,5.153c0,1.787,0.326,3.69,0.978,5.713
	c0.651,2.021,1.506,3.779,2.56,5.272c1.024,1.437,2.264,2.561,3.714,3.373c1.45,0.813,2.944,1.22,4.482,1.22
	c0.762,0,1.409-0.087,1.944-0.263s1.168-0.514,1.9-1.012c-0.205,1.217-0.307,2.6-0.307,4.153c0,1.538,0.117,3.2,0.352,4.987h1.604
	c-0.25-1.758-0.373-3.457-0.373-5.098c0-1.802,0.248-3.794,0.746-5.977c0.615-2.709,0.924-4.738,0.924-6.086
	c0-1.684-0.279-2.871-0.834-3.56c-0.309-0.41-0.703-0.743-1.188-0.999c-0.484-0.256-0.938-0.385-1.363-0.385
	c-0.922,0-1.641,0.513-2.152,1.538c-0.367,0.747-0.549,1.714-0.549,2.9c0,1.129,0.219,2.607,0.658,4.438
	c-0.498-1.421-1.003-2.512-1.516-3.274c-0.864-1.229-1.845-1.846-2.944-1.846c-1.216,0-2.738,0.484-4.569,1.451
	c2.328-1.787,3.492-3.355,3.492-4.703c0-1.538-1.67-2.966-5.009-4.284c0.703,0.102,1.259,0.154,1.669,0.154
	c2.945,0,4.417-1.194,4.417-3.582c0-1.201-0.417-2.622-1.252-4.263c1.713,1.964,3.127,2.945,4.24,2.945
	c1.054,0,2.644-1.055,4.767-3.164c-1.83,2.373-2.744,4.482-2.744,6.328c0,0.615,0.178,1.15,0.537,1.604s1.043,1.011,2.055,1.67
	c1.539,0.996,2.574,1.981,3.109,2.955c0.533,0.974,0.803,2.37,0.803,4.186c0,1.787-0.359,4.139-1.078,7.053
	c-0.365,1.437-0.549,2.645-0.549,3.627c0,1.873,0.227,3.998,0.682,6.371h1.604c-0.469-2.358-0.703-4.461-0.703-6.307
	c0-0.878,0.168-1.99,0.506-3.339c0.746-3.077,1.121-5.522,1.121-7.339c0-2.241-0.404-4.036-1.209-5.384
	c-0.559-0.937-1.568-1.86-3.033-2.768c-0.541-0.337-1.025-0.645-1.449-0.923C32.426,18.754,33.707,16.623,33.707,13.664"/>
</svg>
