<?xml version="1.0" encoding="utf-8"?>
<!-- Generator: Adobe Illustrator 14.0.0, SVG Export Plug-In . SVG Version: 6.00 Build 43363)  -->
<!DOCTYPE svg PUBLIC "-//W3C//DTD SVG 1.1//EN" "http://www.w3.org/Graphics/SVG/1.1/DTD/svg11.dtd">
<svg version="1.1"
	 id="svg18486" xmlns:svg="http://www.w3.org/2000/svg" xmlns:dc="http://purl.org/dc/elements/1.1/" xmlns:rdf="http://www.w3.org/1999/02/22-rdf-syntax-ns#" xmlns:cc="http://creativecommons.org/ns#"
	 xmlns="http://www.w3.org/2000/svg" xmlns:xlink="http://www.w3.org/1999/xlink" x="0px" y="0px" width="83.357px"
	 height="110.438px" viewBox="0 0 83.357 110.438" enable-background="new 0 0 83.357 110.438" xml:space="preserve">
<g id="layer1" transform="translate(-333.32128,-477.14323)">
	<g id="g16485" transform="matrix(1.25,0,0,-1.25,392.70914,501.03495)">
		<path id="path16487" d="M0,0c-5.579-17.222-33.628-9.871-28.299,9.031C-23.558,25.846,4.458,20.811,0,0"/>
	</g>
	<g id="g16489" transform="matrix(1.25,0,0,-1.25,389.69864,563.50245)">
		<path id="path16491" d="M0,0c-13.58-1.92-13.07,13.398-21.677,14.45c-5.43-2.305-0.211-9.219,0-13.246
			c-2.68-1.734-6.975-1.855-10.837-2.408c3.204-8.127,23.307-0.067,25.89-8.43c4.634-15.007-24.582-8.857-30.105-5.418
			c-12.143,7.559-9.184,22.642-3.01,34.921c2.586,5.144,5.941,11.355,8.429,13.246c6.694,5.087,32.468,5.519,39.737,0.602
			c4.323-2.922,16.945-21.63,12.042-33.115C19.147-2.501,12.233-10.54,6.623-12.042C-3.75-14.82-8.425-5.64,0,0 M-5.419,3.01
			C10.547-3.246,14.47,25.061-3.01,21.676C-12.464,19.845-13.936,6.348-5.419,3.01"/>
	</g>
</g>
</svg>
