<?xml version="1.0" encoding="iso-8859-1"?>
<!-- Generator: Adobe Illustrator 16.0.0, SVG Export Plug-In . SVG Version: 6.00 Build 0)  -->
<!DOCTYPE svg PUBLIC "-//W3C//DTD SVG 1.1//EN" "http://www.w3.org/Graphics/SVG/1.1/DTD/svg11.dtd">
<svg version="1.1" id="Capa_1" xmlns="http://www.w3.org/2000/svg" xmlns:xlink="http://www.w3.org/1999/xlink" x="0px" y="0px"
	 width="31.771px" height="31.771px" viewBox="0 0 31.771 31.771" style="enable-background:new 0 0 31.771 31.771;"
	 xml:space="preserve">
<g>
	<path d="M20.289,0c-4.327,0-8.812,1.462-8.356,7.72c-1.233-0.464-2.684-1.443-3.233-3.507C8.444,3.254,7.461,2.685,6.501,2.939
		c-0.958,0.256-1.527,1.239-1.27,2.197c1.176,4.413,4.896,6.077,7.466,6.484c0.779,2.703,0.659,4.903,0.176,6.696l-0.001-0.004
		c-0.011,0.049-0.022,0.096-0.036,0.143c-0.003,0.007-0.004,0.012-0.005,0.02c-0.651,2.252-3.197,2.854-4.521,3.018
		c-2.717-0.586-4.021,0.659-4.566,1.482c-1.494,2.252-0.419,5.859,1.353,8.111c0.353,0.451,0.882,0.686,1.412,0.686
		c0.391,0,0.78-0.125,1.107-0.385c0.779-0.611,0.915-1.74,0.303-2.52c-1.231-1.569-1.466-3.557-1.198-3.898
		c0.066-0.035,0.399-0.095,1.079,0.092c1.156,0.314,2.267,0.492,3.198,0.594c0.821,0.244,2.159,0.4,4.213,0.508
		c6.626,0.343,12.19-5.796,13.34-13.779C29.682,4.536,25.385,0,20.289,0z"/>
</g>
<g>
</g>
<g>
</g>
<g>
</g>
<g>
</g>
<g>
</g>
<g>
</g>
<g>
</g>
<g>
</g>
<g>
</g>
<g>
</g>
<g>
</g>
<g>
</g>
<g>
</g>
<g>
</g>
<g>
</g>
</svg>
