<?xml version="1.0" encoding="iso-8859-1"?>
<!-- Generator: Adobe Illustrator 18.0.0, SVG Export Plug-In . SVG Version: 6.00 Build 0)  -->
<!DOCTYPE svg PUBLIC "-//W3C//DTD SVG 1.1//EN" "http://www.w3.org/Graphics/SVG/1.1/DTD/svg11.dtd">
<svg version="1.1" id="Capa_1" xmlns="http://www.w3.org/2000/svg" xmlns:xlink="http://www.w3.org/1999/xlink" x="0px" y="0px"
	 viewBox="0 0 60 60" style="enable-background:new 0 0 60 60;" xml:space="preserve">
<g>
	<circle cx="44" cy="40" r="1"/>
	<circle cx="46" cy="57" r="1"/>
	<circle cx="21" cy="49" r="1"/>
	<circle cx="37" cy="43" r="1"/>
	<circle cx="52" cy="48" r="1"/>
	<circle cx="15" cy="57" r="1"/>
	<path d="M17.071,12.899C15.182,11.011,12.671,9.97,10,9.97s-5.182,1.041-7.071,2.929C1.04,14.788,0,17.299,0,19.971
		c0,2.671,1.04,5.182,2.929,7.071l15.556,15.556l14.142-14.142L17.071,12.899z"/>
	<path d="M57.071,3.929C55.182,2.04,52.671,1,50,1s-5.182,1.04-7.071,2.929L27.373,19.485l14.142,14.142l15.556-15.557
		C58.96,16.182,60,13.671,60,11S58.96,5.818,57.071,3.929z"/>
	<path d="M40,36c0-2.206-1.794-4-4-4s-4,1.794-4,4s1.794,4,4,4S40,38.206,40,36z"/>
	<path d="M29,40c-2.206,0-4,1.794-4,4s1.794,4,4,4s4-1.794,4-4S31.206,40,29,40z"/>
	<path d="M39,46c-2.206,0-4,1.794-4,4s1.794,4,4,4s4-1.794,4-4S41.206,46,39,46z"/>
	<path d="M29,51c-2.206,0-4,1.794-4,4s1.794,4,4,4s4-1.794,4-4S31.206,51,29,51z"/>
</g>
<g>
</g>
<g>
</g>
<g>
</g>
<g>
</g>
<g>
</g>
<g>
</g>
<g>
</g>
<g>
</g>
<g>
</g>
<g>
</g>
<g>
</g>
<g>
</g>
<g>
</g>
<g>
</g>
<g>
</g>
</svg>
