<?xml version="1.0" encoding="iso-8859-1"?>
<!-- Generator: Adobe Illustrator 19.0.0, SVG Export Plug-In . SVG Version: 6.00 Build 0)  -->
<svg version="1.1" id="Capa_1" xmlns="http://www.w3.org/2000/svg" xmlns:xlink="http://www.w3.org/1999/xlink" x="0px" y="0px"
	 viewBox="0 0 206.084 206.084" style="enable-background:new 0 0 206.084 206.084;" xml:space="preserve">
<g>
	<path d="M162.564,19.009C145.107,6.603,124.504,0.046,102.981,0.046c-27.508,0-53.369,10.712-72.819,30.163
		C12.85,47.521,2.253,70.477,0.322,94.85c-1.908,24.096,4.711,48.16,18.64,67.761l3.771,5.305L167.869,22.78L162.564,19.009z"/>
	<path d="M187.174,43.683l-3.766-5.33L38.304,183.458l5.33,3.768c17.407,12.303,37.935,18.812,59.362,18.812
		c0.003,0,0.004,0,0.008,0c27.502,0,53.363-10.716,72.813-30.167C211.389,140.3,216.165,84.704,187.174,43.683z"/>
</g>
<g>
</g>
<g>
</g>
<g>
</g>
<g>
</g>
<g>
</g>
<g>
</g>
<g>
</g>
<g>
</g>
<g>
</g>
<g>
</g>
<g>
</g>
<g>
</g>
<g>
</g>
<g>
</g>
<g>
</g>
</svg>
